<svg xmlns="http://www.w3.org/2000/svg" viewBox="0 0 448 448" width="448" height="448">
	<style>
		tspan { white-space:pre }
		.shp0 { fill: #000000 } 
	</style>
	<g id="Layer">
		<g id="Layer">
			<path id="Layer" fill-rule="evenodd" class="shp0" d="M447.9 230.1C447.9 230.3 447.9 301.4 447.9 301.5C447.9 315.4 436.6 326.7 422.7 326.7L409.8 326.7C409.8 327.7 409.8 328 409.8 328.7C409.8 328.9 409.8 329 409.8 329.2C409.7 357.8 386.4 380.9 357.8 380.8C329.2 380.7 306.1 357.4 306.2 328.8C306.2 328.2 306.2 327.8 306.2 326.8L133.9 326.8C134 327.8 134 328.1 134 328.8C134 329 134 329.1 134 329.3C133.9 357.9 110.6 381 82 380.9C53.4 380.8 30.3 357.5 30.4 328.9C30.4 328.3 30.5 327.9 30.5 326.9C30.3 326.9 24.9 326.9 24.8 326.9C10.9 326.7 -0.2 315.3 0 301.4L0 108.4C0 85.7 18 67 40.8 67L254 67C276.8 67 295 85.6 295 108.4L295 121L339.6 121C355.1 120.9 369.3 129.5 376.3 143.3L402.2 193.7L432.7 206.9C442.1 211 448.1 220.3 447.9 230.1ZM114.1 329.2C114.1 311.6 99.9 297.4 82.3 297.4C64.7 297.4 50.5 311.6 50.5 329.2C50.5 346.8 64.7 361 82.3 361C99.8 361 114.1 346.7 114.1 329.2ZM275 250.1L20 250.1L20 301.6C20 304.7 22.1 307.1 25.2 307.1L35.4 307.1C43.8 288.7 62.1 277.1 82.3 277.2C102.4 277.1 120.8 288.8 129.2 307.1L275 307.1L275 250.1ZM275 108.4C275.1 96.8 265.7 87.2 254 87.1L40.8 87.1C29.1 87.1 20 96.8 20 108.5L20 230.1L275 230.1L275 108.4ZM295 141.1L295 191.1L378.6 191.1L358.6 152.4C354.9 145.3 347.5 141 339.6 141.1L295 141.1ZM389.9 329.2C389.9 311.6 375.7 297.4 358.1 297.4C340.5 297.4 326.3 311.6 326.3 329.2C326.3 346.8 340.5 361 358.1 361C375.7 361 389.9 346.7 389.9 329.2ZM428 230.5C428.1 228.3 426.8 226.1 424.8 225.1L393 211.1L295 211.1L295 307.1L311.2 307.1C316.3 296.1 325.2 287.2 336.2 282.1C362.1 270 392.9 281.2 405 307.1L422.8 307.1C425.9 307.1 428 304.7 428 301.6L428 230.5Z" />
		</g>
	</g>
</svg>