<?xml version="1.0" standalone="no"?>
<!DOCTYPE svg PUBLIC "-//W3C//DTD SVG 20010904//EN"
 "http://www.w3.org/TR/2001/REC-SVG-20010904/DTD/svg10.dtd">
<svg version="1.0" xmlns="http://www.w3.org/2000/svg"
 width="700.000000pt" height="700.000000pt" viewBox="0 0 700.000000 700.000000"
 preserveAspectRatio="xMidYMid meet">
<metadata>
Created by potrace 1.11, written by Peter Selinger 2001-2013
</metadata>
<g transform="translate(0.000000,700.000000) scale(0.100000,-0.100000)"
fill="#000000" stroke="none">
<path d="M2587 6880 c-124 -22 -265 -83 -371 -162 -110 -83 -158 -147 -385
-518 -5 -8 -51 -82 -101 -163 -116 -188 -126 -223 -77 -278 17 -20 831 -546
956 -619 14 -8 28 -18 29 -22 2 -5 7 -8 12 -8 5 0 82 -47 171 -105 90 -58 178
-108 195 -111 20 -4 45 0 68 11 39 19 50 36 155 228 23 42 64 116 92 163 27
47 49 87 49 88 0 11 239 428 245 428 4 0 35 -51 67 -114 33 -62 79 -149 102
-193 24 -44 67 -125 96 -180 29 -55 70 -131 90 -170 20 -38 67 -127 104 -197
l66 -126 -45 -31 c-25 -17 -48 -31 -50 -31 -2 0 -94 -54 -205 -121 -210 -126
-240 -153 -240 -212 0 -77 52 -122 155 -132 33 -3 71 -7 85 -10 14 -2 52 -7
85 -10 33 -3 71 -8 85 -10 14 -2 54 -7 90 -10 63 -5 100 -9 185 -20 22 -2 63
-7 90 -10 28 -3 64 -8 80 -10 17 -2 61 -7 100 -10 38 -4 78 -9 88 -11 10 -2
48 -6 85 -10 36 -3 75 -8 87 -10 11 -2 65 -8 120 -14 55 -6 111 -12 125 -14
23 -4 47 -7 200 -21 30 -3 70 -8 88 -10 111 -16 127 -16 165 1 42 19 44 24
292 539 35 72 109 225 165 340 56 116 124 255 150 310 26 55 98 204 160 330
124 255 137 287 132 328 -5 41 -62 94 -108 99 -32 4 -73 -13 -302 -129 -146
-74 -266 -132 -267 -131 -1 2 -98 167 -215 368 -228 392 -239 409 -315 485
-71 71 -113 100 -207 145 -168 80 -73 74 -1288 76 -597 1 -1106 -2 -1133 -6z
m602 -246 c5 -5 72 -134 149 -287 l139 -278 -74 -132 c-41 -73 -88 -157 -105
-187 -16 -30 -93 -168 -170 -307 l-140 -251 -167 106 c-93 59 -175 112 -184
117 -9 6 -58 37 -109 69 -132 85 -311 199 -471 301 -131 84 -137 89 -124 109
7 11 81 131 163 265 165 271 224 342 335 404 80 44 145 66 229 75 93 10 519 7
529 -4z m1548 2 c113 -13 224 -68 310 -154 39 -39 186 -267 215 -332 26 -59
348 -593 365 -605 11 -8 37 -17 57 -20 30 -5 58 5 186 69 82 42 150 73 150 71
0 -6 -64 -141 -200 -420 -51 -104 -123 -253 -160 -330 -37 -77 -112 -231 -166
-343 l-98 -202 -46 4 c-25 3 -66 7 -92 10 -80 10 -131 16 -183 21 -27 3 -66 7
-85 10 -19 3 -56 7 -82 10 -27 3 -67 7 -90 10 -24 2 -65 7 -93 10 -27 3 -68 8
-90 11 -78 10 -111 13 -172 19 -34 3 -70 7 -80 9 -10 2 -54 7 -98 12 -44 4
-83 9 -87 10 -5 1 -24 2 -44 3 -19 0 -33 5 -30 10 3 5 64 43 134 85 149 88
172 109 179 163 5 35 -4 57 -70 184 -41 79 -86 164 -99 189 -14 25 -58 108
-98 185 -40 77 -87 167 -105 200 -18 33 -74 139 -125 235 -51 96 -113 213
-138 260 -72 136 -125 238 -182 345 -29 55 -73 137 -97 182 -24 46 -42 86 -40
90 6 10 1170 9 1254 -1z"/>
<path d="M1969 5026 c-2 -2 -58 -7 -124 -11 -66 -4 -145 -8 -175 -10 -30 -2
-100 -6 -155 -9 -55 -4 -129 -8 -165 -11 -149 -10 -230 -16 -310 -20 -102 -6
-216 -13 -325 -20 -44 -3 -120 -7 -170 -10 -49 -3 -124 -7 -165 -10 -41 -3
-113 -7 -160 -10 -132 -8 -157 -14 -190 -47 -26 -26 -30 -37 -30 -85 0 -70 14
-85 178 -184 67 -41 140 -85 162 -99 22 -14 88 -55 147 -92 60 -37 114 -71
121 -76 10 -7 -38 -113 -206 -448 -188 -377 -221 -452 -241 -534 -55 -232 -18
-443 117 -675 100 -170 673 -1159 814 -1405 94 -162 188 -318 209 -347 129
-172 326 -294 542 -334 88 -16 617 -18 655 -2 17 7 40 27 53 44 l23 32 0 852
c0 947 5 882 -66 925 -29 18 -56 19 -417 19 -212 0 -412 0 -443 1 l-57 0 81
138 c44 75 92 160 108 187 15 28 85 149 156 270 70 121 149 259 176 308 28 48
52 87 55 87 2 0 37 -13 76 -29 40 -16 101 -41 137 -54 36 -14 108 -42 160 -62
52 -20 110 -39 127 -42 92 -15 167 86 128 171 -7 17 -30 67 -51 111 -20 44
-49 107 -64 140 -15 33 -39 85 -53 115 -14 30 -52 114 -85 185 -32 72 -143
311 -246 533 -102 221 -186 405 -186 409 0 12 -51 73 -68 81 -22 12 -68 23
-73 18z m-29 -329 c70 -152 99 -215 138 -297 22 -47 62 -134 90 -195 78 -171
95 -207 186 -404 47 -102 85 -186 83 -187 -1 -1 -72 25 -157 58 -165 63 -200
67 -247 28 -12 -10 -97 -148 -189 -306 -91 -159 -225 -390 -296 -514 -72 -124
-140 -241 -150 -260 -87 -153 -380 -658 -390 -672 -11 -15 -39 28 -218 339
-113 195 -216 374 -230 398 -148 255 -170 312 -172 441 -2 89 6 155 26 211 7
21 119 250 249 509 129 259 238 485 242 503 14 66 -22 113 -140 181 -104 60
-235 143 -235 150 0 4 31 8 69 9 38 1 77 3 87 5 11 2 80 7 154 11 74 3 155 8
180 10 82 6 234 15 325 20 50 3 111 7 136 9 25 2 104 7 175 11 71 4 130 8 131
9 1 0 28 2 61 3 l59 3 33 -73z m386 -3174 c0 -379 -3 -691 -8 -694 -5 -3 -102
-4 -216 -3 -257 2 -339 22 -467 113 -91 65 -138 123 -231 286 -38 66 -73 128
-79 137 -5 9 -20 34 -31 55 -12 21 -51 88 -86 149 l-65 110 144 235 c79 128
152 249 163 267 l19 32 429 0 428 0 0 -687z"/>
<path d="M6350 4422 c-19 -11 -222 -129 -450 -262 -228 -133 -434 -253 -456
-266 -213 -121 -494 -290 -516 -311 -16 -15 -29 -41 -33 -64 -6 -34 -1 -50 41
-127 26 -48 57 -105 69 -127 12 -22 53 -96 92 -165 38 -69 83 -150 100 -180
17 -30 65 -117 107 -193 42 -76 75 -141 72 -145 -2 -4 -240 -8 -528 -7 l-523
0 -1 230 c-1 127 -2 240 -3 253 -1 12 -16 38 -34 58 -29 32 -38 36 -86 37
l-53 2 -77 -81 c-72 -77 -178 -192 -306 -334 -32 -36 -65 -72 -74 -81 -9 -9
-32 -34 -51 -55 -139 -155 -208 -231 -225 -249 -11 -12 -54 -59 -95 -105 -41
-45 -80 -88 -85 -94 -6 -6 -37 -40 -70 -76 -255 -278 -254 -277 -255 -333 0
-27 12 -58 32 -81 8 -10 101 -131 158 -206 27 -35 624 -811 731 -950 36 -47
114 -148 173 -225 133 -173 170 -198 250 -160 62 30 70 58 70 265 l1 185 435
1 c466 1 516 4 612 35 215 71 337 178 472 415 44 77 85 146 91 154 7 8 30 47
50 85 21 39 41 75 45 80 7 9 75 124 132 225 11 19 35 60 53 90 18 30 120 204
225 385 106 182 252 427 326 545 206 333 231 400 233 621 2 208 -2 222 -258
734 -120 242 -231 451 -244 464 -35 32 -101 38 -147 13z m194 -638 c196 -392
214 -440 211 -574 -3 -133 -32 -221 -117 -355 -17 -27 -64 -102 -104 -165
l-73 -115 -390 0 c-244 0 -394 4 -400 10 -9 10 -54 87 -119 205 -16 30 -75
136 -130 235 -55 99 -130 234 -166 299 -36 66 -66 123 -66 127 0 6 83 57 185
115 11 6 83 48 160 94 77 45 158 92 180 105 22 12 175 101 340 198 165 97 302
176 305 177 3 0 86 -160 184 -356z m-2468 -1211 c0 -76 3 -150 7 -165 4 -15
23 -39 43 -54 l35 -27 1075 0 c591 0 1074 -2 1074 -4 0 -6 -42 -81 -155 -273
-56 -96 -130 -224 -165 -285 -34 -60 -72 -126 -85 -145 -18 -29 -104 -174
-175 -299 -181 -315 -207 -350 -304 -413 -33 -21 -89 -48 -125 -59 -64 -21
-85 -22 -602 -23 -490 -2 -538 -3 -562 -19 -45 -29 -60 -63 -61 -133 0 -35 -3
-64 -6 -64 -4 0 -28 30 -55 68 -27 37 -54 72 -60 78 -5 6 -21 26 -35 44 -14
18 -164 213 -333 434 -170 221 -319 414 -330 429 -12 15 -30 38 -39 49 -21 25
-22 35 -5 52 6 7 44 48 82 91 39 42 84 92 100 110 17 17 66 72 110 121 44 49
107 118 140 154 33 35 65 69 70 76 25 28 162 179 180 198 11 12 55 61 98 109
44 48 80 87 81 87 0 0 1 -62 2 -137z"/>
</g>
</svg>
